<svg version="1" xmlns="http://www.w3.org/2000/svg" width="2222.667" height="2222.667" viewBox="0 0 1667.000000 1667.000000"><path d="M562.9 416.9c0 .3-.1 131.1-.1 290.6 0 159.5-.5 293.6-.9 298-1.5 13.2-1.7 14.7-3.3 22.3-8.2 37.7-30.7 66.3-61.7 78.2-13.2 5-22.2 6.5-40.9 6.5-20.1 0-31.2-1.6-45.3-6.4-35-12.1-54-41.4-58.4-90.2-.3-4.1-.7-10.4-.7-14.2l-.1-6.7h-85.2c-67.5 0-85.3.3-85.4 1.2-.2 3.3.2 17.8.6 22.3 1.4 16 1.8 19.5 3 29 1 7.4 5.7 27.9 8.5 37.3 10.7 36 27.7 64.9 53 90.3 42.6 42.8 95.4 65.1 172 72.6 10.9 1 64.3 1 73.5 0 14.9-1.7 23.5-3.1 33.5-5.2 1.4-.3 3.4-.7 4.5-.9 10.4-2.1 27.8-7 30.7-8.6 1-.6 2.2-1 2.8-1 1.8 0 20.7-7.8 30.7-12.7 48.4-23.6 85-59 109.2-105.5 7.8-15.2 17.5-40.3 19.6-50.8.2-.8 1-4.2 1.8-7.5 1.6-5.8 1.8-7.2 3.1-14.5 1.3-7.8 1.6-9.7 2.1-14 .3-2.5.8-5.5 1-6.8 1.5-8.8 1.8-57.3 1.8-314.2V416.5l-84.6-.1c-46.6 0-84.7.2-84.8.5zM877 827v410.7l175.8-.2c96.6-.2 177.7-.5 180.2-.8 2.5-.3 7.9-.8 12-1.2 4.1-.3 8.6-.8 10-1 1.4-.2 5-.7 8-1 15.2-1.8 42.6-7.4 56.5-11.6 5.5-1.6 10.7-3.1 11.5-3.4 7.8-2 27-9.9 39.4-16.2 16.5-8.3 29.8-16.9 45.1-29.2 6.4-5.2 23.3-23 29-30.6 21.5-28.7 34.3-61.4 40.5-103.5 2.9-19.6 3.2-61.9.6-74.7-.3-1.1-.8-4.3-1.1-7-1.2-8.2-5.5-24.4-9.2-34.3-19.4-51.9-60.4-89.6-114.7-105.5l-8.1-2.3 4-1.7c30.5-12.7 58.3-34 75.9-57.9 5.8-7.8 12.6-18.3 12.6-19.3 0-.3.6-1.4 1.3-2.2 2-2.4 9.1-18.4 12.6-28.3 3.1-9 7.4-27.8 8.7-38.3 1.6-12.8.9-54.1-1.1-65-.3-1.7-1-5.5-1.5-8.5-.6-3-1.3-6.9-1.6-8.5-.9-5.3-6.4-23.7-9.1-30.5-17.8-45.6-51.3-80.3-99.8-103.6-24.1-11.5-54.3-21.2-81-25.8-4.9-.9-10.1-1.8-11.5-2.1-1.3-.2-4.2-.7-6.5-1-2.2-.3-5.1-.8-6.5-1-6.1-1-24.8-2.9-41.5-4.2-3.8-.3-79.8-.6-168.7-.8l-161.8-.2V827zm312-272.6c5.2.4 10.6.9 12 1.1 1.4.2 4.5.7 7 1 29.4 3.8 53.1 14.2 68.2 30 3.4 3.5 13.2 17.6 13.4 19.4 0 .3.6 1.9 1.3 3.6 1.7 4.1 4.2 11.3 4.7 13.9 4.8 22.4 5 40 1 62.8-.8 4.5-4.3 14.2-7.3 20.3-11.3 23-33 39-63.6 47-24.3 6.4-32.3 6.8-113.7 6.9l-65.5.1-.1-102.5c0-56.4.1-103 .3-103.5.4-1.2 126.5-1.2 142.3-.1zm34 327c1.9.4 6.2 1.1 9.5 1.7 56.4 9.4 85.7 47.7 85.5 111.9-.1 30.5-9.1 54.2-27.6 72.5-17 16.9-42.5 28.8-68.9 32-2.7.4-6.1.9-7.5 1.2-3.5.8-167 1.2-167.1.4-.3-1.3-.5-219.6-.2-220.2.4-.8 171.9-.3 176.3.5z"/></svg>